{
	"asset":{
		"generator":"Khronos glTF Blender I/O v4.4.55",
		"version":"2.0"
	},
	"scene":0,
	"scenes":[
		{
			"name":"Scene",
			"nodes":[
				0
			]
		}
	],
	"nodes":[
		{
			"mesh":0,
			"name":"Mesh_0"
		}
	],
	"materials":[
		{
			"doubleSided":true,
			"name":"Material_0",
			"pbrMetallicRoughness":{
				"baseColorTexture":{
					"index":0
				},
				"metallicFactor":0,
				"roughnessFactor":0.800000011920929
			}
		}
	],
	"meshes":[
		{
			"name":"Mesh_0",
			"primitives":[
				{
					"attributes":{
						"POSITION":0,
						"NORMAL":1,
						"TEXCOORD_0":2
					},
					"indices":3,
					"material":0
				}
			]
		}
	],
	"textures":[
		{
			"sampler":0,
			"source":0
		}
	],
	"images":[
		{
			"mimeType":"image/jpeg",
			"name":"Image_0",
			"uri":"Image_0.jpg"
		}
	],
	"accessors":[
		{
			"bufferView":0,
			"componentType":5126,
			"count":42627,
			"max":[
				0.7061870098114014,
				0.6106330156326294,
				0.13916100561618805
			],
			"min":[
				-0.8015739917755127,
				-0.26921600103378296,
				-0.2602840065956116
			],
			"type":"VEC3"
		},
		{
			"bufferView":1,
			"componentType":5126,
			"count":42627,
			"type":"VEC3"
		},
		{
			"bufferView":2,
			"componentType":5126,
			"count":42627,
			"type":"VEC2"
		},
		{
			"bufferView":3,
			"componentType":5123,
			"count":223458,
			"type":"SCALAR"
		}
	],
	"bufferViews":[
		{
			"buffer":0,
			"byteLength":511524,
			"byteOffset":0,
			"target":34962
		},
		{
			"buffer":0,
			"byteLength":511524,
			"byteOffset":511524,
			"target":34962
		},
		{
			"buffer":0,
			"byteLength":341016,
			"byteOffset":1023048,
			"target":34962
		},
		{
			"buffer":0,
			"byteLength":446916,
			"byteOffset":1364064,
			"target":34963
		}
	],
	"samplers":[
		{
			"magFilter":9729,
			"minFilter":9987
		}
	],
	"buffers":[
		{
			"byteLength":1810980,
			"uri":"React_Router.bin"
		}
	]
}
