{
  "asset": {
    "generator": "Khronos glTF Blender I/O v4.4.55",
    "version": "2.0"
  },
  "scene": 0,
  "scenes": [
    {
      "name": "Scene",
      "nodes": [0, 1]
    }
  ],
  "nodes": [
    {
      "mesh": 0,
      "name": "Curve",
      "rotation": [
        0.4500741958618164, 0.5453744530677795, -0.450074166059494,
        0.5453745126724243
      ],
      "translation": [
        -0.030223427340388298, 0.04575526341795921, -0.018268447369337082
      ]
    },
    {
      "mesh": 1,
      "name": "Curve.002",
      "rotation": [
        0.4526960551738739, 0.5432000160217285, -0.4526959955692291,
        0.5432000756263733
      ],
      "scale": [0.7350406646728516, 0.7350406646728516, 0.7350406646728516],
      "translation": [
        -0.024726809933781624, 0.06004074215888977, -0.01830970123410225
      ]
    }
  ],
  "materials": [
    {
      "doubleSided": true,
      "name": "Material.001",
      "pbrMetallicRoughness": {
        "baseColorFactor": [
          0.04026491567492485, 0.025120597332715988, 0.8713672757148743, 1
        ],
        "metallicFactor": 0,
        "roughnessFactor": 0.25
      }
    },
    {
      "doubleSided": true,
      "name": "SVGMat.002",
      "pbrMetallicRoughness": {
        "baseColorFactor": [1, 1, 1, 1],
        "metallicFactor": 0,
        "roughnessFactor": 0.4000000059604645
      }
    }
  ],
  "meshes": [
    {
      "name": "Curve",
      "primitives": [
        {
          "attributes": {
            "POSITION": 0,
            "NORMAL": 1,
            "TEXCOORD_0": 2
          },
          "indices": 3,
          "material": 0
        }
      ]
    },
    {
      "name": "Curve.002",
      "primitives": [
        {
          "attributes": {
            "POSITION": 4,
            "NORMAL": 5,
            "TEXCOORD_0": 6
          },
          "indices": 7,
          "material": 1
        }
      ]
    }
  ],
  "accessors": [
    {
      "bufferView": 0,
      "componentType": 5126,
      "count": 1748,
      "max": [0.04882744327187538, 0.007499999832361937, 0.04099201038479805],
      "min": [
        -0.044571083039045334, -0.007499999832361937, -0.06350591033697128
      ],
      "type": "VEC3"
    },
    {
      "bufferView": 1,
      "componentType": 5126,
      "count": 1748,
      "type": "VEC3"
    },
    {
      "bufferView": 2,
      "componentType": 5126,
      "count": 1748,
      "type": "VEC2"
    },
    {
      "bufferView": 3,
      "componentType": 5123,
      "count": 8916,
      "type": "SCALAR"
    },
    {
      "bufferView": 4,
      "componentType": 5126,
      "count": 4352,
      "max": [0.04447587952017784, 0.006500000134110451, 0.047070011496543884],
      "min": [
        -0.039173051714897156, -0.006500000134110451, -0.04634697735309601
      ],
      "type": "VEC3"
    },
    {
      "bufferView": 5,
      "componentType": 5126,
      "count": 4352,
      "type": "VEC3"
    },
    {
      "bufferView": 6,
      "componentType": 5126,
      "count": 4352,
      "type": "VEC2"
    },
    {
      "bufferView": 7,
      "componentType": 5123,
      "count": 22308,
      "type": "SCALAR"
    }
  ],
  "bufferViews": [
    {
      "buffer": 0,
      "byteLength": 20976,
      "byteOffset": 0,
      "target": 34962
    },
    {
      "buffer": 0,
      "byteLength": 20976,
      "byteOffset": 20976,
      "target": 34962
    },
    {
      "buffer": 0,
      "byteLength": 13984,
      "byteOffset": 41952,
      "target": 34962
    },
    {
      "buffer": 0,
      "byteLength": 17832,
      "byteOffset": 55936,
      "target": 34963
    },
    {
      "buffer": 0,
      "byteLength": 52224,
      "byteOffset": 73768,
      "target": 34962
    },
    {
      "buffer": 0,
      "byteLength": 52224,
      "byteOffset": 125992,
      "target": 34962
    },
    {
      "buffer": 0,
      "byteLength": 34816,
      "byteOffset": 178216,
      "target": 34962
    },
    {
      "buffer": 0,
      "byteLength": 44616,
      "byteOffset": 213032,
      "target": 34963
    }
  ],
  "buffers": [
    {
      "byteLength": 257648,
      "uri": "css.bin"
    }
  ]
}
