{
	"asset":{
		"generator":"Khronos glTF Blender I/O v4.4.55",
		"version":"2.0"
	},
	"scene":0,
	"scenes":[
		{
			"name":"Scene",
			"nodes":[
				0
			]
		}
	],
	"nodes":[
		{
			"mesh":0,
			"name":"Mesh_0"
		}
	],
	"materials":[
		{
			"doubleSided":true,
			"name":"Material_0",
			"pbrMetallicRoughness":{
				"baseColorTexture":{
					"index":0
				},
				"metallicFactor":0.4678899049758911,
				"roughnessFactor":0.2036697268486023
			}
		}
	],
	"meshes":[
		{
			"name":"Mesh_0",
			"primitives":[
				{
					"attributes":{
						"POSITION":0,
						"NORMAL":1,
						"TEXCOORD_0":2
					},
					"indices":3,
					"material":0
				}
			]
		}
	],
	"textures":[
		{
			"sampler":0,
			"source":0
		}
	],
	"images":[
		{
			"mimeType":"image/jpeg",
			"name":"Image_0",
			"uri":"Image_0.jpg"
		}
	],
	"accessors":[
		{
			"bufferView":0,
			"componentType":5126,
			"count":36089,
			"max":[
				0.6620169878005981,
				1.0000200271606445,
				0.17538000643253326
			],
			"min":[
				-0.6623910069465637,
				-0.4332369863986969,
				-0.1670610010623932
			],
			"type":"VEC3"
		},
		{
			"bufferView":1,
			"componentType":5126,
			"count":36089,
			"type":"VEC3"
		},
		{
			"bufferView":2,
			"componentType":5126,
			"count":36089,
			"type":"VEC2"
		},
		{
			"bufferView":3,
			"componentType":5123,
			"count":183258,
			"type":"SCALAR"
		}
	],
	"bufferViews":[
		{
			"buffer":0,
			"byteLength":433068,
			"byteOffset":0,
			"target":34962
		},
		{
			"buffer":0,
			"byteLength":433068,
			"byteOffset":433068,
			"target":34962
		},
		{
			"buffer":0,
			"byteLength":288712,
			"byteOffset":866136,
			"target":34962
		},
		{
			"buffer":0,
			"byteLength":366516,
			"byteOffset":1154848,
			"target":34963
		}
	],
	"samplers":[
		{
			"magFilter":9729,
			"minFilter":9987
		}
	],
	"buffers":[
		{
			"byteLength":1521364,
			"uri":"CSS_3D.bin"
		}
	]
}
