{
	"asset":{
		"generator":"Khronos glTF Blender I/O v4.4.55",
		"version":"2.0"
	},
	"scene":0,
	"scenes":[
		{
			"name":"Scene",
			"nodes":[
				0
			]
		}
	],
	"nodes":[
		{
			"mesh":0,
			"name":"Mesh_0"
		}
	],
	"materials":[
		{
			"doubleSided":true,
			"name":"Material_0",
			"pbrMetallicRoughness":{
				"baseColorTexture":{
					"index":0
				},
				"metallicFactor":0,
				"roughnessFactor":0.800000011920929
			}
		}
	],
	"meshes":[
		{
			"name":"Mesh_0",
			"primitives":[
				{
					"attributes":{
						"POSITION":0,
						"NORMAL":1,
						"TEXCOORD_0":2
					},
					"indices":3,
					"material":0
				}
			]
		}
	],
	"textures":[
		{
			"sampler":0,
			"source":0
		}
	],
	"images":[
		{
			"mimeType":"image/jpeg",
			"name":"Image_0",
			"uri":"Image_0.jpg"
		}
	],
	"accessors":[
		{
			"bufferView":0,
			"componentType":5126,
			"count":81920,
			"max":[
				1.000440001487732,
				0.9976239800453186,
				0.16947199404239655
			],
			"min":[
				-1.000040054321289,
				-0.990369975566864,
				-0.16231000423431396
			],
			"type":"VEC3"
		},
		{
			"bufferView":1,
			"componentType":5126,
			"count":81920,
			"type":"VEC3"
		},
		{
			"bufferView":2,
			"componentType":5126,
			"count":81920,
			"type":"VEC2"
		},
		{
			"bufferView":3,
			"componentType":5125,
			"count":442380,
			"type":"SCALAR"
		}
	],
	"bufferViews":[
		{
			"buffer":0,
			"byteLength":983040,
			"byteOffset":0,
			"target":34962
		},
		{
			"buffer":0,
			"byteLength":983040,
			"byteOffset":983040,
			"target":34962
		},
		{
			"buffer":0,
			"byteLength":655360,
			"byteOffset":1966080,
			"target":34962
		},
		{
			"buffer":0,
			"byteLength":1769520,
			"byteOffset":2621440,
			"target":34963
		}
	],
	"samplers":[
		{
			"magFilter":9729,
			"minFilter":9987
		}
	],
	"buffers":[
		{
			"byteLength":4390960,
			"uri":"JWT.bin"
		}
	]
}
