{
	"asset":{
		"generator":"Khronos glTF Blender I/O v4.4.55",
		"version":"2.0"
	},
	"scene":0,
	"scenes":[
		{
			"name":"Scene",
			"nodes":[
				0
			]
		}
	],
	"nodes":[
		{
			"mesh":0,
			"name":"Mesh_0"
		}
	],
	"materials":[
		{
			"doubleSided":true,
			"name":"Material_0",
			"pbrMetallicRoughness":{
				"baseColorTexture":{
					"index":0
				},
				"metallicFactor":0,
				"roughnessFactor":0.800000011920929
			}
		}
	],
	"meshes":[
		{
			"name":"Mesh_0",
			"primitives":[
				{
					"attributes":{
						"POSITION":0,
						"NORMAL":1,
						"TEXCOORD_0":2
					},
					"indices":3,
					"material":0
				}
			]
		}
	],
	"textures":[
		{
			"sampler":0,
			"source":0
		}
	],
	"images":[
		{
			"mimeType":"image/jpeg",
			"name":"Image_0",
			"uri":"Image_0.jpg"
		}
	],
	"accessors":[
		{
			"bufferView":0,
			"componentType":5126,
			"count":82215,
			"max":[
				0.8743450045585632,
				1.000749945640564,
				0.15693800151348114
			],
			"min":[
				-0.8745920062065125,
				-1.0007100105285645,
				-0.15712100267410278
			],
			"type":"VEC3"
		},
		{
			"bufferView":1,
			"componentType":5126,
			"count":82215,
			"type":"VEC3"
		},
		{
			"bufferView":2,
			"componentType":5126,
			"count":82215,
			"type":"VEC2"
		},
		{
			"bufferView":3,
			"componentType":5125,
			"count":435072,
			"type":"SCALAR"
		}
	],
	"bufferViews":[
		{
			"buffer":0,
			"byteLength":986580,
			"byteOffset":0,
			"target":34962
		},
		{
			"buffer":0,
			"byteLength":986580,
			"byteOffset":986580,
			"target":34962
		},
		{
			"buffer":0,
			"byteLength":657720,
			"byteOffset":1973160,
			"target":34962
		},
		{
			"buffer":0,
			"byteLength":1740288,
			"byteOffset":2630880,
			"target":34963
		}
	],
	"samplers":[
		{
			"magFilter":9729,
			"minFilter":9987
		}
	],
	"buffers":[
		{
			"byteLength":4371168,
			"uri":"NODE_JS.bin"
		}
	]
}
