{
	"asset":{
		"generator":"Khronos glTF Blender I/O v4.4.55",
		"version":"2.0"
	},
	"scene":0,
	"scenes":[
		{
			"name":"Scene",
			"nodes":[
				0
			]
		}
	],
	"nodes":[
		{
			"mesh":0,
			"name":"Mesh_0"
		}
	],
	"materials":[
		{
			"doubleSided":true,
			"name":"Material_0",
			"pbrMetallicRoughness":{
				"baseColorTexture":{
					"index":0
				},
				"metallicFactor":0.15596330165863037,
				"roughnessFactor":0.8642202019691467
			}
		}
	],
	"meshes":[
		{
			"name":"Mesh_0",
			"primitives":[
				{
					"attributes":{
						"POSITION":0,
						"NORMAL":1,
						"TEXCOORD_0":2
					},
					"indices":3,
					"material":0
				}
			]
		}
	],
	"textures":[
		{
			"sampler":0,
			"source":0
		}
	],
	"images":[
		{
			"mimeType":"image/jpeg",
			"name":"Image_0",
			"uri":"Image_0.jpg"
		}
	],
	"accessors":[
		{
			"bufferView":0,
			"componentType":5126,
			"count":61509,
			"max":[
				0.9940339922904968,
				0.9346169829368591,
				0.19866999983787537
			],
			"min":[
				-0.9966610074043274,
				-0.9355630278587341,
				-0.19691699743270874
			],
			"type":"VEC3"
		},
		{
			"bufferView":1,
			"componentType":5126,
			"count":61509,
			"type":"VEC3"
		},
		{
			"bufferView":2,
			"componentType":5126,
			"count":61509,
			"type":"VEC2"
		},
		{
			"bufferView":3,
			"componentType":5123,
			"count":307842,
			"type":"SCALAR"
		}
	],
	"bufferViews":[
		{
			"buffer":0,
			"byteLength":738108,
			"byteOffset":0,
			"target":34962
		},
		{
			"buffer":0,
			"byteLength":738108,
			"byteOffset":738108,
			"target":34962
		},
		{
			"buffer":0,
			"byteLength":492072,
			"byteOffset":1476216,
			"target":34962
		},
		{
			"buffer":0,
			"byteLength":615684,
			"byteOffset":1968288,
			"target":34963
		}
	],
	"samplers":[
		{
			"magFilter":9729,
			"minFilter":9987
		}
	],
	"buffers":[
		{
			"byteLength":2583972,
			"uri":"Motion.bin"
		}
	]
}
