{
	"asset":{
		"generator":"Khronos glTF Blender I/O v4.4.55",
		"version":"2.0"
	},
	"scene":0,
	"scenes":[
		{
			"name":"Scene",
			"nodes":[
				0
			]
		}
	],
	"nodes":[
		{
			"mesh":0,
			"name":"Mesh_0",
			"translation":[
				0.6683107018470764,
				0,
				0
			]
		}
	],
	"materials":[
		{
			"doubleSided":true,
			"name":"Material_0",
			"pbrMetallicRoughness":{
				"baseColorTexture":{
					"index":0
				},
				"metallicFactor":0
			}
		}
	],
	"meshes":[
		{
			"name":"Mesh_0",
			"primitives":[
				{
					"attributes":{
						"POSITION":0,
						"NORMAL":1,
						"TEXCOORD_0":2
					},
					"indices":3,
					"material":0
				}
			]
		}
	],
	"textures":[
		{
			"sampler":0,
			"source":0
		}
	],
	"images":[
		{
			"mimeType":"image/jpeg",
			"name":"Image_0",
			"uri":"Image_0.jpg"
		}
	],
	"accessors":[
		{
			"bufferView":0,
			"componentType":5126,
			"count":19485,
			"max":[
				-0.48133501410484314,
				0.6834750175476074,
				0.12185399979352951
			],
			"min":[
				-0.9932780265808105,
				-0.679826021194458,
				-0.12143199890851974
			],
			"type":"VEC3"
		},
		{
			"bufferView":1,
			"componentType":5126,
			"count":19485,
			"type":"VEC3"
		},
		{
			"bufferView":2,
			"componentType":5126,
			"count":19485,
			"type":"VEC2"
		},
		{
			"bufferView":3,
			"componentType":5123,
			"count":100002,
			"type":"SCALAR"
		}
	],
	"bufferViews":[
		{
			"buffer":0,
			"byteLength":233820,
			"byteOffset":0,
			"target":34962
		},
		{
			"buffer":0,
			"byteLength":233820,
			"byteOffset":233820,
			"target":34962
		},
		{
			"buffer":0,
			"byteLength":155880,
			"byteOffset":467640,
			"target":34962
		},
		{
			"buffer":0,
			"byteLength":200004,
			"byteOffset":623520,
			"target":34963
		}
	],
	"samplers":[
		{
			"magFilter":9729,
			"minFilter":9987
		}
	],
	"buffers":[
		{
			"byteLength":823524,
			"uri":"MongoDB.bin"
		}
	]
}
