{
	"asset":{
		"generator":"Khronos glTF Blender I/O v4.4.55",
		"version":"2.0"
	},
	"scene":0,
	"scenes":[
		{
			"name":"Scene",
			"nodes":[
				0
			]
		}
	],
	"nodes":[
		{
			"mesh":0,
			"name":"Mesh_0"
		}
	],
	"materials":[
		{
			"doubleSided":true,
			"name":"Material_0",
			"pbrMetallicRoughness":{
				"baseColorTexture":{
					"index":0
				},
				"roughnessFactor":0.800000011920929
			}
		}
	],
	"meshes":[
		{
			"name":"Mesh_0",
			"primitives":[
				{
					"attributes":{
						"POSITION":0,
						"NORMAL":1,
						"TEXCOORD_0":2
					},
					"indices":3,
					"material":0
				}
			]
		}
	],
	"textures":[
		{
			"sampler":0,
			"source":0
		}
	],
	"images":[
		{
			"mimeType":"image/jpeg",
			"name":"Image_0",
			"uri":"Image_0.jpg"
		}
	],
	"accessors":[
		{
			"bufferView":0,
			"componentType":5126,
			"count":64550,
			"max":[
				0.741034984588623,
				1.0011800527572632,
				0.22065800428390503
			],
			"min":[
				-0.7414019703865051,
				-1.0006999969482422,
				-0.22180399298667908
			],
			"type":"VEC3"
		},
		{
			"bufferView":1,
			"componentType":5126,
			"count":64550,
			"type":"VEC3"
		},
		{
			"bufferView":2,
			"componentType":5126,
			"count":64550,
			"type":"VEC2"
		},
		{
			"bufferView":3,
			"componentType":5123,
			"count":253284,
			"type":"SCALAR"
		}
	],
	"bufferViews":[
		{
			"buffer":0,
			"byteLength":774600,
			"byteOffset":0,
			"target":34962
		},
		{
			"buffer":0,
			"byteLength":774600,
			"byteOffset":774600,
			"target":34962
		},
		{
			"buffer":0,
			"byteLength":516400,
			"byteOffset":1549200,
			"target":34962
		},
		{
			"buffer":0,
			"byteLength":506568,
			"byteOffset":2065600,
			"target":34963
		}
	],
	"samplers":[
		{
			"magFilter":9729,
			"minFilter":9987
		}
	],
	"buffers":[
		{
			"byteLength":2572168,
			"uri":"Firebase.bin"
		}
	]
}
