{
	"asset":{
		"generator":"Khronos glTF Blender I/O v4.4.55",
		"version":"2.0"
	},
	"scene":0,
	"scenes":[
		{
			"name":"Scene",
			"nodes":[
				0
			]
		}
	],
	"nodes":[
		{
			"mesh":0,
			"name":"Mesh_0"
		}
	],
	"materials":[
		{
			"doubleSided":true,
			"name":"Material_0",
			"pbrMetallicRoughness":{
				"baseColorTexture":{
					"index":0
				},
				"metallicFactor":0.14678901433944702,
				"roughnessFactor":0.8091742992401123
			}
		}
	],
	"meshes":[
		{
			"name":"Mesh_0",
			"primitives":[
				{
					"attributes":{
						"POSITION":0,
						"NORMAL":1,
						"TEXCOORD_0":2
					},
					"indices":3,
					"material":0
				}
			]
		}
	],
	"textures":[
		{
			"sampler":0,
			"source":0
		}
	],
	"images":[
		{
			"mimeType":"image/jpeg",
			"name":"Image_0",
			"uri":"Image_0.jpg"
		}
	],
	"accessors":[
		{
			"bufferView":0,
			"componentType":5126,
			"count":118408,
			"max":[
				0.8576459884643555,
				0.9971799850463867,
				0.5690119862556458
			],
			"min":[
				-0.8572700023651123,
				-1.0008100271224976,
				-0.5693230032920837
			],
			"type":"VEC3"
		},
		{
			"bufferView":1,
			"componentType":5126,
			"count":118408,
			"type":"VEC3"
		},
		{
			"bufferView":2,
			"componentType":5126,
			"count":118408,
			"type":"VEC2"
		},
		{
			"bufferView":3,
			"componentType":5125,
			"count":624330,
			"type":"SCALAR"
		}
	],
	"bufferViews":[
		{
			"buffer":0,
			"byteLength":1420896,
			"byteOffset":0,
			"target":34962
		},
		{
			"buffer":0,
			"byteLength":1420896,
			"byteOffset":1420896,
			"target":34962
		},
		{
			"buffer":0,
			"byteLength":947264,
			"byteOffset":2841792,
			"target":34962
		},
		{
			"buffer":0,
			"byteLength":2497320,
			"byteOffset":3789056,
			"target":34963
		}
	],
	"samplers":[
		{
			"magFilter":9729,
			"minFilter":9987
		}
	],
	"buffers":[
		{
			"byteLength":6286376,
			"uri":"GSAP.bin"
		}
	]
}
