{
	"asset":{
		"generator":"Khronos glTF Blender I/O v4.4.55",
		"version":"2.0"
	},
	"scene":0,
	"scenes":[
		{
			"name":"Scene",
			"nodes":[
				0
			]
		}
	],
	"nodes":[
		{
			"mesh":0,
			"name":"Mesh_0"
		}
	],
	"materials":[
		{
			"doubleSided":true,
			"name":"Material_0",
			"pbrMetallicRoughness":{
				"baseColorTexture":{
					"index":0
				},
				"metallicFactor":0,
				"roughnessFactor":0.800000011920929
			}
		}
	],
	"meshes":[
		{
			"name":"Mesh_0",
			"primitives":[
				{
					"attributes":{
						"POSITION":0,
						"NORMAL":1,
						"TEXCOORD_0":2
					},
					"indices":3,
					"material":0
				}
			]
		}
	],
	"textures":[
		{
			"sampler":0,
			"source":0
		}
	],
	"images":[
		{
			"mimeType":"image/jpeg",
			"name":"Image_0",
			"uri":"Image_0.jpg"
		}
	],
	"accessors":[
		{
			"bufferView":0,
			"componentType":5126,
			"count":39544,
			"max":[
				1.0015699863433838,
				0.5839269757270813,
				0.08343280106782913
			],
			"min":[
				-1.001270055770874,
				-0.5824009776115417,
				-0.08354479819536209
			],
			"type":"VEC3"
		},
		{
			"bufferView":1,
			"componentType":5126,
			"count":39544,
			"type":"VEC3"
		},
		{
			"bufferView":2,
			"componentType":5126,
			"count":39544,
			"type":"VEC2"
		},
		{
			"bufferView":3,
			"componentType":5123,
			"count":198780,
			"type":"SCALAR"
		}
	],
	"bufferViews":[
		{
			"buffer":0,
			"byteLength":474528,
			"byteOffset":0,
			"target":34962
		},
		{
			"buffer":0,
			"byteLength":474528,
			"byteOffset":474528,
			"target":34962
		},
		{
			"buffer":0,
			"byteLength":316352,
			"byteOffset":949056,
			"target":34962
		},
		{
			"buffer":0,
			"byteLength":397560,
			"byteOffset":1265408,
			"target":34963
		}
	],
	"samplers":[
		{
			"magFilter":9729,
			"minFilter":9987
		}
	],
	"buffers":[
		{
			"byteLength":1662968,
			"uri":"TailwindCSS.bin"
		}
	]
}
