{
	"asset":{
		"generator":"Khronos glTF Blender I/O v4.4.55",
		"version":"2.0"
	},
	"scene":0,
	"scenes":[
		{
			"name":"Scene",
			"nodes":[
				0
			]
		}
	],
	"nodes":[
		{
			"mesh":0,
			"name":"Mesh_0"
		}
	],
	"materials":[
		{
			"doubleSided":true,
			"name":"Material_0",
			"pbrMetallicRoughness":{
				"baseColorTexture":{
					"index":0
				},
				"metallicFactor":0,
				"roughnessFactor":0.800000011920929
			}
		}
	],
	"meshes":[
		{
			"name":"Mesh_0",
			"primitives":[
				{
					"attributes":{
						"POSITION":0,
						"NORMAL":1,
						"TEXCOORD_0":2
					},
					"indices":3,
					"material":0
				}
			]
		}
	],
	"textures":[
		{
			"sampler":0,
			"source":0
		}
	],
	"images":[
		{
			"mimeType":"image/jpeg",
			"name":"Image_0",
			"uri":"Image_0.jpg"
		}
	],
	"accessors":[
		{
			"bufferView":0,
			"componentType":5126,
			"count":60633,
			"max":[
				1.0025399923324585,
				0.7094380259513855,
				0.18783600628376007
			],
			"min":[
				-1.000730037689209,
				-0.7090449929237366,
				-0.18716199696063995
			],
			"type":"VEC3"
		},
		{
			"bufferView":1,
			"componentType":5126,
			"count":60633,
			"type":"VEC3"
		},
		{
			"bufferView":2,
			"componentType":5126,
			"count":60633,
			"type":"VEC2"
		},
		{
			"bufferView":3,
			"componentType":5123,
			"count":307104,
			"type":"SCALAR"
		}
	],
	"bufferViews":[
		{
			"buffer":0,
			"byteLength":727596,
			"byteOffset":0,
			"target":34962
		},
		{
			"buffer":0,
			"byteLength":727596,
			"byteOffset":727596,
			"target":34962
		},
		{
			"buffer":0,
			"byteLength":485064,
			"byteOffset":1455192,
			"target":34962
		},
		{
			"buffer":0,
			"byteLength":614208,
			"byteOffset":1940256,
			"target":34963
		}
	],
	"samplers":[
		{
			"magFilter":9729,
			"minFilter":9987
		}
	],
	"buffers":[
		{
			"byteLength":2554464,
			"uri":"Javascript_Symbol_0404113239_texture.bin"
		}
	]
}
