<svg xmlns="http://www.w3.org/2000/svg" x="0px" y="0px" width="100" height="100" viewBox="0 0 48 48">
<defs><linearGradient id="vjup5JC66eeh3wp8v6chga_j6duwIiBy7ME_gr1" x1="14.4" x2="33.28" y1="1.82" y2="35.85" gradientUnits="userSpaceOnUse"><stop offset=".1" stop-color="#ecfcef"></stop><stop offset=".59" stop-color="#c2f3db"></stop><stop offset=".96" stop-color="#b5d9f7"></stop></linearGradient><linearGradient id="vjup5JC66eeh3wp8v6chgb_j6duwIiBy7ME_gr2" x1="14.34" x2="33.32" y1="1.71" y2="35.93" gradientUnits="userSpaceOnUse"><stop offset=".1" stop-color="#e8fbeb"></stop><stop offset=".59" stop-color="#b4f0d3"></stop><stop offset=".96" stop-color="#a4d1f5"></stop></linearGradient><linearGradient id="vjup5JC66eeh3wp8v6chgc_j6duwIiBy7ME_gr3" x1="14.3" x2="33.35" y1="1.63" y2="35.98" gradientUnits="userSpaceOnUse"><stop offset=".1" stop-color="#e4fae8"></stop><stop offset=".59" stop-color="#a7eecb"></stop><stop offset=".96" stop-color="#94c8f4"></stop></linearGradient><linearGradient id="vjup5JC66eeh3wp8v6chgd_j6duwIiBy7ME_gr4" x1="14.27" x2="33.38" y1="1.57" y2="36.02" gradientUnits="userSpaceOnUse"><stop offset=".1" stop-color="#dffae4"></stop><stop offset=".59" stop-color="#99ebc3"></stop><stop offset=".96" stop-color="#83c0f2"></stop></linearGradient><linearGradient id="vjup5JC66eeh3wp8v6chge_j6duwIiBy7ME_gr5" x1="14.26" x2="33.39" y1="1.55" y2="36.04" gradientUnits="userSpaceOnUse"><stop offset=".1" stop-color="#dbf9e0"></stop><stop offset=".59" stop-color="#8ce8bb"></stop><stop offset=".96" stop-color="#73b8f0"></stop></linearGradient><linearGradient id="vjup5JC66eeh3wp8v6chgf_j6duwIiBy7ME_gr6" x1="14.26" x2="33.39" y1="1.55" y2="36.03" gradientUnits="userSpaceOnUse"><stop offset=".1" stop-color="#d7f8dd"></stop><stop offset=".59" stop-color="#7ee6b4"></stop><stop offset=".96" stop-color="#62afef"></stop></linearGradient><linearGradient id="vjup5JC66eeh3wp8v6chgg_j6duwIiBy7ME_gr7" x1="14.28" x2="33.38" y1="1.58" y2="36.02" gradientUnits="userSpaceOnUse"><stop offset=".1" stop-color="#d3f7d9"></stop><stop offset=".59" stop-color="#71e3ac"></stop><stop offset=".96" stop-color="#52a7ed"></stop></linearGradient><linearGradient id="vjup5JC66eeh3wp8v6chgh_j6duwIiBy7ME_gr8" x1="14.31" x2="33.36" y1="1.63" y2="35.98" gradientUnits="userSpaceOnUse"><stop offset=".1" stop-color="#cef7d5"></stop><stop offset=".59" stop-color="#63e0a4"></stop><stop offset=".96" stop-color="#419feb"></stop></linearGradient><linearGradient id="vjup5JC66eeh3wp8v6chgi_j6duwIiBy7ME_gr9" x1="14.35" x2="33.33" y1="1.71" y2="35.92" gradientUnits="userSpaceOnUse"><stop offset=".1" stop-color="#caf6d2"></stop><stop offset=".59" stop-color="#56de9c"></stop><stop offset=".96" stop-color="#3196ea"></stop></linearGradient><linearGradient id="vjup5JC66eeh3wp8v6chgj_j6duwIiBy7ME_gr10" x1="14.41" x2="33.29" y1="1.81" y2="35.85" gradientUnits="userSpaceOnUse"><stop offset=".1" stop-color="#c6f5ce"></stop><stop offset=".59" stop-color="#48db94"></stop><stop offset=".96" stop-color="#208ee8"></stop></linearGradient></defs><path fill="url(#vjup5JC66eeh3wp8v6chga_j6duwIiBy7ME_gr1)" d="m19.14,39.24c-1.3,0-2.61-.5-3.6-1.49l-10.16-10.16c-2.11-2.11-1.98-5.6.37-7.55,2.05-1.7,5.11-1.39,6.99.49l6.12,6.12c.16.16.41.16.57,0l16-16c1.99-1.99,5.22-1.99,7.21,0,1.99,1.99,1.99,5.22,0,7.21l-19.89,19.89c-.99,1-2.3,1.49-3.6,1.49Z"></path><path fill="url(#vjup5JC66eeh3wp8v6chgb_j6duwIiBy7ME_gr2)" d="m19.14,38.96c-1.23,0-2.46-.47-3.4-1.41l-10.16-10.15c-1.98-1.98-1.89-5.25.3-7.1,1.93-1.64,4.85-1.38,6.64.41l6.14,6.14c.27.27.7.27.96,0l15.99-15.99c1.87-1.88,4.92-1.9,6.8-.03,1.9,1.88,1.91,4.94.02,6.83l-19.89,19.89c-.94.94-2.17,1.41-3.4,1.41Z"></path><path fill="url(#vjup5JC66eeh3wp8v6chgc_j6duwIiBy7ME_gr3)" d="m19.14,38.68c-1.16,0-2.32-.44-3.2-1.33l-10.15-10.15c-1.85-1.85-1.79-4.9.23-6.65,1.82-1.58,4.58-1.36,6.28.34l6.17,6.17c.37.37.98.37,1.36,0l15.98-15.98c1.76-1.76,4.61-1.8,6.39-.06,1.81,1.76,1.83,4.66.04,6.45l-19.89,19.89c-.88.89-2.04,1.33-3.2,1.33Z"></path><path fill="url(#vjup5JC66eeh3wp8v6chgd_j6duwIiBy7ME_gr4)" d="m19.14,38.39c-1.09,0-2.17-.41-3-1.24l-10.14-10.14c-1.72-1.72-1.69-4.55.15-6.2,1.7-1.52,4.32-1.35,5.92.26l6.19,6.19c.48.48,1.27.48,1.75,0l15.97-15.97c1.64-1.64,4.31-1.7,5.98-.09,1.72,1.65,1.75,4.39.06,6.07l-19.89,19.89c-.83.83-1.92,1.24-3,1.24Z"></path><path fill="url(#vjup5JC66eeh3wp8v6chge_j6duwIiBy7ME_gr5)" d="m19.14,38.11c-1.01,0-2.03-.39-2.8-1.16l-10.13-10.13c-1.59-1.59-1.59-4.2.08-5.75,1.58-1.46,4.05-1.33,5.57.19l6.22,6.22c.59.59,1.55.59,2.15,0l15.97-15.97c1.52-1.53,4-1.61,5.57-.12,1.63,1.54,1.66,4.11.09,5.69l-19.89,19.89c-.77.77-1.79,1.16-2.8,1.16Z"></path><path fill="url(#vjup5JC66eeh3wp8v6chgf_j6duwIiBy7ME_gr6)" d="m19.14,37.83c-.94,0-1.88-.36-2.6-1.08l-10.13-10.12c-1.46-1.46-1.5-3.86,0-5.31s3.78-1.31,5.21.11l6.24,6.24c.7.7,1.84.7,2.54,0l15.96-15.96c1.41-1.41,3.7-1.51,5.16-.15,1.54,1.42,1.58,3.83.11,5.31l-19.89,19.89c-.72.72-1.66,1.08-2.6,1.08Z"></path><path fill="url(#vjup5JC66eeh3wp8v6chgg_j6duwIiBy7ME_gr7)" d="m19.14,37.54c-.87,0-1.74-.33-2.4-1l-10.12-10.12c-1.33-1.33-1.4-3.51-.06-4.86s3.52-1.3,4.85.03l6.26,6.26c.81.81,2.12.81,2.93,0l15.95-15.95c1.29-1.29,3.39-1.41,4.74-.19,1.46,1.31,1.5,3.56.13,4.92l-19.89,19.89c-.66.66-1.53,1-2.4,1Z"></path><path fill="url(#vjup5JC66eeh3wp8v6chgh_j6duwIiBy7ME_gr8)" d="m19.14,37.26c-.8,0-1.59-.3-2.2-.91l-10.11-10.11c-1.2-1.2-1.31-3.17-.13-4.41s3.25-1.28,4.5-.04l6.29,6.29c.92.92,2.41.92,3.33,0l15.94-15.94c1.18-1.18,3.09-1.32,4.33-.22,1.37,1.2,1.42,3.28.15,4.54l-19.89,19.89c-.61.61-1.41.91-2.2.91Z"></path><path fill="url(#vjup5JC66eeh3wp8v6chgi_j6duwIiBy7ME_gr9)" d="m19.14,36.98c-.72,0-1.45-.28-2-.83l-10.1-10.1c-1.07-1.07-1.21-2.82-.21-3.96,1.1-1.24,2.99-1.27,4.14-.12l6.31,6.31c1.03,1.03,2.69,1.03,3.72,0l15.93-15.93c1.06-1.06,2.79-1.22,3.92-.25,1.28,1.08,1.33,3,.17,4.16l-19.89,19.89c-.55.55-1.28.83-2,.83Z"></path><path fill="url(#vjup5JC66eeh3wp8v6chgj_j6duwIiBy7ME_gr10)" d="m19.14,36.7c-.65,0-1.3-.25-1.8-.75l-10.09-10.09c-.94-.94-1.12-2.48-.28-3.51.97-1.19,2.72-1.25,3.78-.19l6.34,6.33c1.14,1.14,2.98,1.14,4.12,0l15.93-15.93c.94-.94,2.48-1.12,3.51-.28,1.19.97,1.25,2.72.19,3.78l-19.89,19.89c-.5.5-1.15.75-1.8.75Z"></path>
</svg>