{
	"asset":{
		"generator":"Khronos glTF Blender I/O v4.4.55",
		"version":"2.0"
	},
	"scene":0,
	"scenes":[
		{
			"name":"Scene",
			"nodes":[
				0
			]
		}
	],
	"nodes":[
		{
			"mesh":0,
			"name":"Mesh_0"
		}
	],
	"materials":[
		{
			"doubleSided":true,
			"name":"Material_0",
			"pbrMetallicRoughness":{
				"baseColorTexture":{
					"index":0
				},
				"metallicFactor":0,
				"roughnessFactor":0.800000011920929
			}
		}
	],
	"meshes":[
		{
			"name":"Mesh_0",
			"primitives":[
				{
					"attributes":{
						"POSITION":0,
						"NORMAL":1,
						"TEXCOORD_0":2
					},
					"indices":3,
					"material":0
				}
			]
		}
	],
	"textures":[
		{
			"sampler":0,
			"source":0
		}
	],
	"images":[
		{
			"mimeType":"image/jpeg",
			"name":"Image_0",
			"uri":"Image_0.jpg"
		}
	],
	"accessors":[
		{
			"bufferView":0,
			"componentType":5126,
			"count":112678,
			"max":[
				0.9804099798202515,
				0.9793739914894104,
				0.3169719874858856
			],
			"min":[
				-0.9803889989852905,
				-0.9796850085258484,
				-0.3198769986629486
			],
			"type":"VEC3"
		},
		{
			"bufferView":1,
			"componentType":5126,
			"count":112678,
			"type":"VEC3"
		},
		{
			"bufferView":2,
			"componentType":5126,
			"count":112678,
			"type":"VEC2"
		},
		{
			"bufferView":3,
			"componentType":5125,
			"count":361164,
			"type":"SCALAR"
		}
	],
	"bufferViews":[
		{
			"buffer":0,
			"byteLength":1352136,
			"byteOffset":0,
			"target":34962
		},
		{
			"buffer":0,
			"byteLength":1352136,
			"byteOffset":1352136,
			"target":34962
		},
		{
			"buffer":0,
			"byteLength":901424,
			"byteOffset":2704272,
			"target":34962
		},
		{
			"buffer":0,
			"byteLength":1444656,
			"byteOffset":3605696,
			"target":34963
		}
	],
	"samplers":[
		{
			"magFilter":9729,
			"minFilter":9987
		}
	],
	"buffers":[
		{
			"byteLength":5050352,
			"uri":"TypeScript_clear_Icon_0405061020_texture.bin"
		}
	]
}
