{
	"asset":{
		"generator":"Khronos glTF Blender I/O v4.4.55",
		"version":"2.0"
	},
	"scene":0,
	"scenes":[
		{
			"name":"Scene",
			"nodes":[
				0,
				1
			]
		}
	],
	"nodes":[
		{
			"mesh":0,
			"name":"Mesh_0"
		},
		{
			"mesh":1,
			"name":"Mesh_0.001",
			"translation":[
				-0.8899999856948853,
				0,
				0
			]
		}
	],
	"materials":[
		{
			"doubleSided":true,
			"name":"Material_0",
			"pbrMetallicRoughness":{
				"baseColorFactor":[
					0.011611775495111942,
					0.14126332104206085,
					0.4620770514011383,
					1
				],
				"metallicFactor":0.4403669834136963,
				"roughnessFactor":0.4330275356769562
			}
		}
	],
	"meshes":[
		{
			"name":"Mesh_0",
			"primitives":[
				{
					"attributes":{
						"POSITION":0,
						"NORMAL":1,
						"TEXCOORD_0":2
					},
					"indices":3,
					"material":0
				}
			]
		},
		{
			"name":"Mesh_0.001",
			"primitives":[
				{
					"attributes":{
						"POSITION":4,
						"NORMAL":5,
						"TEXCOORD_0":6
					},
					"indices":7,
					"material":0
				}
			]
		}
	],
	"accessors":[
		{
			"bufferView":0,
			"componentType":5126,
			"count":68937,
			"max":[
				1.0011399984359741,
				0.7138940095901489,
				0.28187501430511475
			],
			"min":[
				-1.0011600255966187,
				-0.7139019966125488,
				-0.2821660041809082
			],
			"type":"VEC3"
		},
		{
			"bufferView":1,
			"componentType":5126,
			"count":68937,
			"type":"VEC3"
		},
		{
			"bufferView":2,
			"componentType":5126,
			"count":68937,
			"type":"VEC2"
		},
		{
			"bufferView":3,
			"componentType":5125,
			"count":354138,
			"type":"SCALAR"
		},
		{
			"bufferView":4,
			"componentType":5126,
			"count":20376,
			"max":[
				-0.21780499815940857,
				0.40659600496292114,
				0.27945199608802795
			],
			"min":[
				-1.0011600255966187,
				-0.45959898829460144,
				-0.28048399090766907
			],
			"type":"VEC3"
		},
		{
			"bufferView":5,
			"componentType":5126,
			"count":20376,
			"type":"VEC3"
		},
		{
			"bufferView":6,
			"componentType":5126,
			"count":20376,
			"type":"VEC2"
		},
		{
			"bufferView":7,
			"componentType":5123,
			"count":104868,
			"type":"SCALAR"
		}
	],
	"bufferViews":[
		{
			"buffer":0,
			"byteLength":827244,
			"byteOffset":0,
			"target":34962
		},
		{
			"buffer":0,
			"byteLength":827244,
			"byteOffset":827244,
			"target":34962
		},
		{
			"buffer":0,
			"byteLength":551496,
			"byteOffset":1654488,
			"target":34962
		},
		{
			"buffer":0,
			"byteLength":1416552,
			"byteOffset":2205984,
			"target":34963
		},
		{
			"buffer":0,
			"byteLength":244512,
			"byteOffset":3622536,
			"target":34962
		},
		{
			"buffer":0,
			"byteLength":244512,
			"byteOffset":3867048,
			"target":34962
		},
		{
			"buffer":0,
			"byteLength":163008,
			"byteOffset":4111560,
			"target":34962
		},
		{
			"buffer":0,
			"byteLength":209736,
			"byteOffset":4274568,
			"target":34963
		}
	],
	"buffers":[
		{
			"byteLength":4484304,
			"uri":"CPP.bin"
		}
	]
}
